<svg width="294" height="187" viewBox="0 0 294 187" fill="none" xmlns="http://www.w3.org/2000/svg">
    <path
        d="M12.5157 123.664L0.309195 86.0968L25.6796 77.8534L27.987 84.955L11.0734 90.4505L13.4689 97.8231L28.4851 92.9441L30.7397 99.883L15.7235 104.762L18.665 113.815L36.8255 107.914L39.1329 115.016L12.5157 123.664ZM53.5409 103.202C54.7335 102.815 55.6799 102.408 56.3802 101.98C57.1048 101.505 57.6492 101.029 58.0133 100.551C58.3657 100.037 58.5559 99.5153 58.584 98.9868C58.612 98.4582 58.5321 97.9048 58.3442 97.3266C57.945 96.0978 57.0379 95.2738 55.6231 94.8545C54.1965 94.399 51.9211 94.1594 48.7969 94.1357C47.4272 94.1013 46.0399 94.0126 44.635 93.8698C43.2184 93.6908 41.8871 93.3442 40.6413 92.83C39.3837 92.2797 38.2539 91.5081 37.252 90.5151C36.2384 89.4859 35.4497 88.104 34.8861 86.3693C34.3224 84.6345 34.1428 82.9748 34.3471 81.3901C34.5396 79.7693 35.0737 78.2772 35.9493 76.9139C36.8248 75.5506 38.0297 74.3401 39.5639 73.2822C41.0864 72.1882 42.9137 71.2948 45.046 70.602C47.5758 69.78 49.8504 69.3406 51.8696 69.2838C53.8889 69.2271 55.6006 69.3302 57.0046 69.5932L56.7316 77.0537C55.5074 76.8521 54.1802 76.7639 52.75 76.7891C51.3442 76.7664 49.7378 77.0487 47.9308 77.6358C45.9069 78.2934 44.5372 79.0581 43.8216 79.9299C43.1303 80.7538 42.9726 81.744 43.3484 82.9005C43.5715 83.5872 43.922 84.1126 44.3999 84.4767C44.8778 84.8408 45.4705 85.1277 46.1779 85.3374C46.9097 85.4992 47.7079 85.6194 48.5725 85.6981C49.4616 85.7288 50.4287 85.7542 51.4741 85.7742C53.6605 85.8629 55.5939 86.0338 57.2744 86.2869C58.9431 86.5038 60.3999 86.9295 61.6449 87.5638C62.926 88.1864 64.0069 89.0538 64.8878 90.1661C65.7686 91.2783 66.5025 92.7379 67.0897 94.545C68.2287 98.0505 67.8865 101.178 66.0631 103.928C64.2279 106.642 60.8347 108.804 55.8835 110.412C54.2211 110.953 52.686 111.332 51.2784 111.549C49.8825 111.803 48.6136 111.956 47.4715 112.007C46.3657 112.047 45.3804 112.027 44.5158 111.948C43.6873 111.858 42.9731 111.75 42.3732 111.626L42.5743 104.129C43.8943 104.379 45.4496 104.493 47.2404 104.471C49.0555 104.4 51.1556 103.978 53.5409 103.202ZM91.542 56.4534L93.8847 63.6634L82.5548 67.3447L92.4186 97.7024L83.9618 100.45L74.098 70.0925L62.768 73.7738L60.4254 66.5638L91.542 56.4534ZM129.89 85.5272C129.07 84.3553 128.184 83.1649 127.231 81.956C126.315 80.7353 125.399 79.5146 124.483 78.294L109.847 83.0497C109.823 84.5757 109.781 86.1076 109.722 87.6453C109.698 89.1713 109.699 90.6494 109.724 92.0796L100.942 94.933C101.036 90.4274 101.158 86.2524 101.307 82.4081C101.457 78.5638 101.634 74.93 101.841 71.5067C102.083 68.0717 102.342 64.811 102.618 61.7248C102.918 58.5906 103.278 55.517 103.697 52.5039L111.775 49.8794C113.849 52.0823 115.929 54.3633 118.014 56.7224C120.087 59.0454 122.213 61.531 124.392 64.1793C126.607 66.8158 128.905 69.6453 131.286 72.6676C133.666 75.6899 136.219 78.9959 138.943 82.5857L129.89 85.5272ZM110.312 59.7643C110.307 60.3651 110.277 61.1941 110.221 62.2511C110.165 63.3082 110.101 64.5275 110.031 65.9089C109.96 67.2903 109.876 68.8158 109.78 70.4855C109.719 72.1433 109.664 73.8794 109.614 75.6936L120.293 72.2236C119.187 70.7852 118.122 69.4132 117.098 68.1076C116.075 66.802 115.11 65.617 114.205 64.5526C113.336 63.4765 112.568 62.5273 111.901 61.7051C111.235 60.8829 110.705 60.236 110.312 59.7643ZM142.463 39.4286C148.101 37.5968 152.749 37.2055 156.406 38.2547C160.051 39.2677 162.561 41.8885 163.935 46.1169C164.792 48.7551 164.877 51.1051 164.188 53.1668C163.524 55.1806 162.206 57.0272 160.234 58.7066C161.299 59.3997 162.446 60.2255 163.676 61.1842C164.895 62.1068 166.119 63.1075 167.349 64.1863C168.603 65.2173 169.844 66.3323 171.073 67.5313C172.29 68.6941 173.447 69.8565 174.543 71.0185L165.056 74.101C163.971 73.0953 162.861 72.0774 161.727 71.0474C160.629 70.0056 159.507 69.0117 158.361 68.0657C157.25 67.1079 156.164 66.2224 155.1 65.4092C154.025 64.5598 152.985 63.8189 151.981 63.1864L147.807 64.5427L152.263 78.2578L143.806 81.0056L131.776 43.98C133.501 43.0198 135.317 42.1503 137.221 41.3716C139.162 40.5812 140.909 39.9336 142.463 39.4286ZM145.294 46.4801C144.68 46.6797 144.125 46.8798 143.631 47.0803C143.173 47.2691 142.733 47.452 142.311 47.6291L145.622 57.8206L148.008 57.0456C151.188 56.0122 153.336 54.8749 154.451 53.6336C155.566 52.3923 155.812 50.8139 155.19 48.8985C154.591 47.0553 153.463 45.9833 151.807 45.6823C150.175 45.3334 148.004 45.5994 145.294 46.4801ZM202.703 53.8378L205.063 61.102L179.964 69.2572L167.757 31.6896L176.214 28.9418L186.06 59.2453L202.703 53.8378ZM211.693 34.495C212.377 31.4358 212.989 28.4002 213.529 25.388C214.068 22.3758 214.494 19.3808 214.805 16.403L224.129 13.3734C223.384 18.0904 222.526 22.7044 221.554 27.2154C220.583 31.7265 219.49 36.2966 218.278 40.926L222.945 55.2917L214.489 58.0395L209.856 43.7822C206.154 40.7498 202.56 37.6823 199.075 34.5795C195.625 31.4649 192.213 28.2184 188.838 24.8401L198.65 21.6519C200.652 23.8783 202.738 26.0572 204.909 28.1886C207.08 30.3201 209.341 32.4222 211.693 34.495ZM266.158 41.251C262.339 37.7371 258.339 34.342 254.158 31.0657C249.977 27.7893 245.692 24.8066 241.302 22.1175L249.299 46.729L240.95 49.4415L228.744 11.8739L235.629 9.63688C237.209 10.442 239.003 11.4771 241.013 12.7421C243.022 14.0071 245.09 15.3928 247.218 16.899C249.37 18.3574 251.533 19.912 253.708 21.5628C255.871 23.1775 257.92 24.7492 259.855 26.2781L252.651 4.1061L261.053 1.37593L273.26 38.9436L266.158 41.251ZM50.2657 124.956L54.1403 123.697L63.1345 151.379L59.2599 152.638L55.1067 139.856L41.5656 144.255L45.7188 157.038L41.8442 158.296L32.8499 130.615L36.7245 129.356L40.4754 140.9L54.0165 136.5L50.2657 124.956ZM70.0081 149.145L61.0138 121.464L77.9103 115.974L78.9875 119.289L65.9656 123.52L68.6393 131.749L80.2231 127.985L81.2744 131.221L69.6905 134.984L72.8054 144.571L86.8259 140.016L87.9031 143.331L70.0081 149.145ZM102.605 125.747C103.204 126.141 103.966 126.674 104.891 127.345C105.833 127.981 106.824 128.719 107.862 129.559C108.892 130.373 109.926 131.244 110.964 132.173C112.028 133.093 112.973 134.008 113.799 134.917L109.565 136.293C108.703 135.454 107.784 134.619 106.808 133.788C105.858 132.949 104.912 132.167 103.97 131.442C103.019 130.691 102.09 130.007 101.183 129.389C100.302 128.762 99.5094 128.225 98.8044 127.777C98.4669 127.916 98.1117 128.046 97.7389 128.167C97.3927 128.28 97.0332 128.397 96.6604 128.518L93.1852 129.647L96.7024 140.472L92.8278 141.731L83.9634 114.449C84.9687 113.828 86.1241 113.261 87.4296 112.749C88.7531 112.201 89.9741 111.745 91.0925 111.382C94.9804 110.118 98.1742 109.89 100.674 110.697C103.2 111.496 104.935 113.346 105.878 116.249C106.475 118.086 106.493 119.818 105.932 121.443C105.397 123.059 104.288 124.494 102.605 125.747ZM92.5152 114.673C90.8642 115.21 89.6123 115.661 88.7595 116.026L92.1469 126.451L94.9031 125.556C96.2346 125.123 97.4113 124.667 98.4332 124.188C99.4551 123.709 100.265 123.166 100.863 122.56C101.487 121.945 101.891 121.239 102.074 120.444C102.249 119.622 102.154 118.651 101.791 117.533C101.453 116.494 100.973 115.694 100.348 115.131C99.7237 114.568 99.0004 114.2 98.1783 114.025C97.3827 113.842 96.493 113.822 95.5091 113.965C94.5517 114.1 93.5538 114.336 92.5152 114.673ZM136.923 127.404C136.017 126.609 134.979 125.724 133.808 124.75C132.665 123.767 131.441 122.766 130.139 121.747C128.827 120.701 127.472 119.655 126.072 118.608C124.698 117.553 123.342 116.551 122.004 115.602C120.656 114.627 119.362 113.723 118.119 112.89C116.877 112.057 115.745 111.335 114.722 110.726L121.744 132.335L117.949 133.568L108.955 105.887L112.031 104.888C113.715 105.812 115.552 106.938 117.544 108.263C119.553 109.554 121.557 110.919 123.556 112.36C125.573 113.765 127.488 115.175 129.301 116.587C131.141 117.991 132.717 119.261 134.027 120.395L127.369 99.9038L131.164 98.6709L140.158 126.352L136.923 127.404ZM165.504 118.117C164.662 117.066 163.856 116.032 163.084 115.017C162.304 113.975 161.506 112.924 160.691 111.864L148.148 115.94L147.929 123.827L143.895 125.138C144.008 121.863 144.128 118.836 144.256 116.056C144.374 113.25 144.51 110.586 144.662 108.064C144.84 105.532 145.04 103.112 145.261 100.803C145.474 98.4668 145.735 96.1445 146.045 93.8358L149.6 92.6807C151.207 94.3664 152.784 96.0917 154.329 97.8567C155.865 99.595 157.436 101.44 159.042 103.391C160.674 105.334 162.363 107.405 164.108 109.606C165.845 111.779 167.722 114.158 169.739 116.741L165.504 118.117ZM158.534 109.032C156.929 106.992 155.35 105.032 153.797 103.152C152.262 101.237 150.717 99.4275 149.163 97.7245C148.88 100.025 148.667 102.405 148.524 104.865C148.4 107.291 148.301 109.796 148.228 112.381L158.534 109.032ZM192.47 109.355C191.564 108.56 190.526 107.676 189.356 106.702C188.212 105.719 186.989 104.718 185.686 103.699C184.375 102.653 183.019 101.606 181.619 100.56C180.246 99.5045 178.89 98.5024 177.551 97.5537C176.204 96.5783 174.909 95.6742 173.667 94.8412C172.425 94.0083 171.292 93.2869 170.27 92.6771L177.291 114.287L173.497 115.52L164.502 87.8385L167.578 86.8391C169.262 87.7639 171.1 88.8892 173.091 90.2148C175.1 91.5051 177.104 92.8706 179.103 94.3114C181.12 95.7169 183.036 97.126 184.849 98.5388C186.689 99.943 188.264 101.212 189.575 102.347L182.917 81.8553L186.712 80.6223L195.706 108.304L192.47 109.355ZM220.783 84.8318C221.561 87.2285 221.868 89.4401 221.702 91.4665C221.527 93.4663 220.951 95.2727 219.974 96.8857C218.988 98.4721 217.645 99.8653 215.944 101.065C214.235 102.239 212.249 103.194 209.985 103.929C208.867 104.292 207.611 104.641 206.219 104.976C204.861 105.329 203.593 105.55 202.415 105.638L193.693 78.7954C194.699 78.1744 195.854 77.6076 197.16 77.0951C198.483 76.5473 199.704 76.0917 200.823 75.7283C203.086 74.9928 205.258 74.6109 207.339 74.5824C209.412 74.5273 211.317 74.8649 213.056 75.5954C214.786 76.2992 216.314 77.422 217.639 78.9639C218.956 80.4792 220.004 82.4352 220.783 84.8318ZM209.202 100.43C212.877 99.2359 215.317 97.4126 216.522 94.9602C217.718 92.4811 217.767 89.5506 216.668 86.1686C215.569 82.7867 213.812 80.4579 211.395 79.1822C208.97 77.8798 205.92 77.8257 202.245 79.0197C201.153 79.3745 200.306 79.6647 199.702 79.8903C199.125 80.1073 198.72 80.268 198.489 80.3725L205.368 101.543C205.617 101.492 206.038 101.384 206.632 101.221C207.254 101.048 208.11 100.785 209.202 100.43ZM231.034 96.825L222.04 69.1436L238.936 63.6536L240.013 66.969L226.991 71.2L229.665 79.4286L241.249 75.6647L242.3 78.9002L230.716 82.6641L233.831 92.2507L247.852 87.6952L248.929 91.0106L231.034 96.825ZM263.434 59.0941C263.047 59.9854 262.6 61.0579 262.095 62.3114C261.607 63.5296 261.106 64.885 260.59 66.3775C260.065 67.8434 259.54 69.3979 259.014 71.0408C258.479 72.6572 257.966 74.2958 257.475 75.9567C257.003 77.5824 256.57 79.1951 256.177 80.7948C255.784 82.3945 255.449 83.9017 255.173 85.3163L270.751 80.2546L271.829 83.57L251.737 90.0983L250.893 87.5019C251.106 86.255 251.378 84.8713 251.708 83.3509C252.065 81.8217 252.453 80.253 252.873 78.6446C253.319 77.0276 253.787 75.3886 254.278 73.7277C254.769 72.0667 255.264 70.4634 255.762 68.9176C256.288 67.3632 256.799 65.9016 257.297 64.5329C257.821 63.1556 258.308 61.9373 258.759 60.8782L244.539 65.4986L243.461 62.1832L262.435 56.0183L263.434 59.0941ZM106.301 158.383C105.649 157.585 104.931 156.669 104.146 155.634C103.369 154.582 102.61 153.476 101.869 152.315C101.951 153.69 101.987 155.031 101.977 156.338C101.963 157.633 101.927 158.794 101.869 159.823L100.328 160.323C99.3202 159.207 98.2655 157.902 97.1637 156.409C96.0618 154.917 94.9485 153.281 93.8235 151.501L95.7256 150.883C96.0461 151.438 96.4084 152.035 96.8125 152.675C97.2167 153.315 97.6272 153.953 98.044 154.588C98.4735 155.22 98.9011 155.824 99.3268 156.401C99.7525 156.977 100.139 157.476 100.486 157.896C100.507 157.23 100.513 156.534 100.501 155.809C100.499 155.067 100.483 154.329 100.455 153.595C100.423 152.848 100.384 152.125 100.339 151.424C100.302 150.707 100.254 150.043 100.196 149.431L101.66 148.955C101.96 149.489 102.299 150.058 102.678 150.664C103.053 151.257 103.447 151.865 103.86 152.488C104.268 153.099 104.683 153.707 105.104 154.313C105.534 154.902 105.954 155.46 106.363 155.986C106.397 155.442 106.41 154.814 106.403 154.101C106.408 153.385 106.399 152.645 106.375 151.881C106.352 151.118 106.315 150.359 106.266 149.604C106.217 148.848 106.159 148.152 106.092 147.515L107.918 146.922C108.054 149.023 108.115 151.001 108.101 152.856C108.087 154.711 108 156.386 107.841 157.882L106.301 158.383ZM110.85 151.458C110.566 150.583 110.446 149.781 110.489 149.052C110.528 148.31 110.687 147.655 110.966 147.088C111.244 146.521 111.621 146.041 112.096 145.648C112.571 145.256 113.094 144.967 113.665 144.781C114.996 144.349 116.153 144.435 117.135 145.042C118.113 145.635 118.878 146.781 119.43 148.481C119.455 148.557 119.488 148.658 119.529 148.785C119.566 148.899 119.595 149.009 119.615 149.115L112.844 151.315C113.253 152.317 113.805 153 114.498 153.364C115.191 153.727 116.089 153.73 117.192 153.372C117.813 153.17 118.317 152.95 118.702 152.713C119.096 152.458 119.385 152.246 119.567 152.074L120.297 153.477C120.118 153.662 119.777 153.906 119.273 154.21C118.781 154.51 118.193 154.771 117.509 154.993C116.646 155.273 115.857 155.39 115.141 155.342C114.433 155.278 113.802 155.083 113.248 154.758C112.693 154.434 112.214 153.994 111.809 153.438C111.413 152.866 111.093 152.206 110.85 151.458ZM117.326 148.281C117.079 147.478 116.664 146.891 116.08 146.52C115.506 146.132 114.857 146.055 114.134 146.29C113.728 146.422 113.394 146.622 113.13 146.89C112.875 147.141 112.681 147.428 112.548 147.752C112.415 148.075 112.339 148.423 112.319 148.793C112.312 149.16 112.345 149.521 112.418 149.876L117.326 148.281ZM122.325 142.724C122.495 142.515 122.771 142.264 123.153 141.972C123.547 141.675 124.03 141.434 124.6 141.249C125.311 141.018 125.979 140.941 126.607 141.018C127.247 141.09 127.832 141.293 128.361 141.625C128.89 141.958 129.352 142.411 129.748 142.983C130.157 143.551 130.485 144.216 130.732 144.977C130.992 145.775 131.106 146.537 131.076 147.262C131.053 147.971 130.899 148.617 130.612 149.201C130.325 149.784 129.916 150.296 129.386 150.734C128.855 151.173 128.21 151.516 127.449 151.763C126.625 152.031 125.877 152.211 125.206 152.303C124.535 152.395 123.978 152.45 123.535 152.467L118.931 138.297L120.601 137.417L122.325 142.724ZM124.896 150.637C125.09 150.63 125.354 150.601 125.687 150.548C126.029 150.479 126.441 150.366 126.923 150.21C127.874 149.901 128.534 149.343 128.903 148.536C129.267 147.717 129.262 146.73 128.887 145.576C128.723 145.069 128.517 144.61 128.272 144.199C128.026 143.788 127.738 143.461 127.406 143.218C127.071 142.963 126.691 142.806 126.265 142.748C125.848 142.673 125.386 142.718 124.879 142.883C124.397 143.039 123.98 143.266 123.628 143.563C123.276 143.859 123.021 144.132 122.863 144.379L124.896 150.637ZM148.023 137.529C148.394 138.67 148.54 139.723 148.461 140.688C148.378 141.64 148.104 142.501 147.638 143.269C147.169 144.024 146.529 144.688 145.72 145.259C144.906 145.818 143.96 146.272 142.882 146.623C142.349 146.796 141.752 146.962 141.088 147.121C140.442 147.289 139.838 147.394 139.277 147.437L135.124 134.654C135.603 134.359 136.153 134.089 136.774 133.845C137.405 133.584 137.986 133.367 138.519 133.194C139.597 132.844 140.631 132.662 141.622 132.648C142.609 132.622 143.516 132.783 144.344 133.13C145.168 133.466 145.896 134 146.527 134.735C147.154 135.456 147.653 136.388 148.023 137.529ZM142.509 144.956C144.259 144.388 145.421 143.52 145.995 142.352C146.564 141.171 146.588 139.776 146.064 138.165C145.541 136.555 144.704 135.446 143.553 134.838C142.399 134.218 140.946 134.193 139.196 134.761C138.676 134.93 138.273 135.068 137.985 135.176C137.71 135.279 137.518 135.356 137.408 135.405L140.683 145.487C140.802 145.462 141.002 145.411 141.285 145.333C141.581 145.251 141.989 145.125 142.509 144.956ZM150.639 138.53C150.354 137.655 150.234 136.853 150.277 136.124C150.317 135.382 150.476 134.727 150.754 134.16C151.032 133.593 151.409 133.113 151.884 132.72C152.36 132.328 152.883 132.039 153.453 131.853C154.785 131.421 155.941 131.507 156.923 132.114C157.901 132.707 158.666 133.853 159.219 135.553C159.243 135.629 159.276 135.73 159.317 135.857C159.355 135.971 159.383 136.081 159.403 136.186L152.632 138.387C153.042 139.389 153.593 140.072 154.286 140.436C154.979 140.799 155.877 140.802 156.98 140.444C157.602 140.242 158.105 140.022 158.491 139.785C158.885 139.53 159.173 139.318 159.356 139.146L160.085 140.549C159.907 140.734 159.565 140.978 159.061 141.282C158.57 141.581 157.982 141.843 157.297 142.065C156.435 142.345 155.645 142.462 154.929 142.414C154.221 142.35 153.59 142.155 153.036 141.83C152.482 141.506 152.002 141.066 151.598 140.51C151.201 139.938 150.882 139.278 150.639 138.53ZM157.114 135.353C156.867 134.55 156.452 133.963 155.869 133.592C155.294 133.204 154.645 133.127 153.922 133.362C153.517 133.494 153.182 133.694 152.919 133.962C152.664 134.213 152.47 134.5 152.336 134.824C152.203 135.147 152.127 135.495 152.107 135.865C152.1 136.232 152.133 136.593 152.206 136.948L157.114 135.353ZM167.925 127.424C168.032 129.437 168.025 131.401 167.905 133.319C167.798 135.232 167.652 136.962 167.467 138.508L165.87 139.027C164.812 137.885 163.67 136.574 162.446 135.093C161.235 133.608 160.081 132.02 158.985 130.329L160.887 129.711C161.241 130.283 161.635 130.891 162.068 131.535C162.511 132.163 162.959 132.788 163.414 133.411C163.877 134.018 164.335 134.605 164.786 135.174C165.237 135.742 165.653 136.245 166.033 136.682C166.084 136.105 166.125 135.454 166.155 134.729C166.186 134.004 166.204 133.262 166.21 132.503C166.224 131.727 166.22 130.958 166.196 130.194C166.181 129.414 166.148 128.689 166.099 128.018L167.925 127.424ZM170.551 132.06C170.267 131.185 170.147 130.383 170.19 129.654C170.229 128.912 170.388 128.257 170.667 127.69C170.945 127.123 171.322 126.643 171.797 126.25C172.272 125.858 172.795 125.569 173.366 125.383C174.697 124.95 175.854 125.037 176.836 125.643C177.814 126.237 178.579 127.383 179.131 129.083C179.156 129.159 179.189 129.26 179.23 129.387C179.267 129.501 179.296 129.611 179.316 129.716L172.545 131.917C172.955 132.919 173.506 133.602 174.199 133.966C174.892 134.329 175.79 134.332 176.893 133.974C177.515 133.772 178.018 133.552 178.403 133.315C178.798 133.06 179.086 132.848 179.268 132.676L179.998 134.079C179.819 134.264 179.478 134.508 178.974 134.812C178.483 135.111 177.894 135.373 177.21 135.595C176.347 135.875 175.558 135.992 174.842 135.944C174.134 135.88 173.503 135.685 172.949 135.36C172.395 135.036 171.915 134.596 171.51 134.04C171.114 133.468 170.794 132.808 170.551 132.06ZM177.027 128.883C176.78 128.08 176.365 127.493 175.781 127.122C175.207 126.734 174.558 126.657 173.835 126.892C173.429 127.024 173.095 127.224 172.831 127.492C172.576 127.743 172.382 128.03 172.249 128.354C172.116 128.677 172.04 129.025 172.02 129.395C172.013 129.762 172.046 130.123 172.119 130.478L177.027 128.883ZM186.358 132.581C185.259 132.91 184.409 132.926 183.809 132.631C183.208 132.335 182.755 131.718 182.45 130.78L178.594 118.911L180.264 118.032L184.126 129.92C184.221 130.212 184.325 130.444 184.437 130.618C184.55 130.792 184.682 130.917 184.833 130.994C184.984 131.071 185.165 131.111 185.376 131.112C185.583 131.101 185.832 131.069 186.123 131.017L186.358 132.581ZM195.654 123.882C195.909 124.669 196.026 125.416 196.003 126.124C195.981 126.832 195.835 127.483 195.565 128.075C195.307 128.663 194.935 129.177 194.446 129.616C193.954 130.042 193.372 130.365 192.7 130.583C192.028 130.802 191.367 130.883 190.718 130.827C190.065 130.759 189.455 130.565 188.888 130.244C188.334 129.92 187.84 129.477 187.406 128.918C186.972 128.358 186.627 127.685 186.371 126.898C186.12 126.125 186.005 125.384 186.028 124.676C186.046 123.955 186.184 123.3 186.441 122.712C186.711 122.119 187.092 121.61 187.585 121.184C188.073 120.745 188.653 120.416 189.325 120.198C189.997 119.979 190.66 119.904 191.313 119.972C191.962 120.028 192.563 120.218 193.117 120.543C193.684 120.863 194.187 121.31 194.625 121.882C195.059 122.442 195.402 123.109 195.654 123.882ZM193.809 124.482C193.446 123.366 192.906 122.567 192.189 122.085C191.48 121.586 190.694 121.477 189.832 121.757C188.97 122.038 188.392 122.59 188.099 123.414C187.815 124.221 187.854 125.183 188.216 126.299C188.579 127.415 189.115 128.222 189.823 128.721C190.541 129.203 191.331 129.304 192.193 129.023C193.055 128.743 193.629 128.199 193.913 127.392C194.206 126.568 194.171 125.598 193.809 124.482ZM205.015 120.862C204.64 119.708 204.067 118.913 203.294 118.477C202.522 118.041 201.66 117.977 200.709 118.286C200.176 118.459 199.764 118.614 199.472 118.751C199.193 118.884 198.972 119.005 198.811 119.113L200.838 125.352C201.112 125.46 201.478 125.53 201.937 125.563C202.397 125.596 202.867 125.534 203.349 125.378C203.856 125.213 204.259 124.984 204.556 124.691C204.862 124.381 205.078 124.031 205.203 123.64C205.324 123.236 205.365 122.802 205.327 122.338C205.284 121.861 205.18 121.369 205.015 120.862ZM206.86 120.262C207.103 121.01 207.226 121.734 207.23 122.434C207.245 123.13 207.137 123.768 206.905 124.348C206.673 124.928 206.319 125.436 205.844 125.871C205.381 126.302 204.794 126.632 204.084 126.863C203.514 127.048 202.982 127.137 202.488 127.129C202.008 127.117 201.637 127.076 201.376 127.007L202.662 130.963L200.893 131.538L196.634 118.433C197.02 118.195 197.505 117.918 198.089 117.602C198.682 117.27 199.39 116.969 200.215 116.701C200.976 116.454 201.699 116.352 202.386 116.395C203.073 116.439 203.705 116.612 204.28 116.916C204.855 117.219 205.362 117.658 205.801 118.23C206.247 118.786 206.601 119.463 206.86 120.262ZM208.798 119.633C208.514 118.758 208.393 117.956 208.437 117.226C208.476 116.485 208.635 115.83 208.913 115.263C209.192 114.696 209.568 114.216 210.044 113.823C210.519 113.431 211.042 113.141 211.613 112.956C212.944 112.523 214.101 112.61 215.083 113.216C216.061 113.81 216.826 114.956 217.378 116.656C217.403 116.732 217.436 116.833 217.477 116.96C217.514 117.074 217.543 117.184 217.563 117.289L210.791 119.49C211.201 120.492 211.753 121.175 212.445 121.539C213.138 121.902 214.037 121.905 215.14 121.547C215.761 121.345 216.265 121.125 216.65 120.888C217.044 120.633 217.332 120.42 217.515 120.249L218.244 121.652C218.066 121.836 217.725 122.081 217.221 122.385C216.729 122.684 216.141 122.946 215.456 123.168C214.594 123.448 213.805 123.565 213.088 123.517C212.38 123.453 211.749 123.258 211.195 122.933C210.641 122.609 210.162 122.169 209.757 121.613C209.361 121.041 209.041 120.381 208.798 119.633ZM215.273 116.456C215.026 115.653 214.611 115.066 214.028 114.695C213.453 114.307 212.805 114.23 212.082 114.465C211.676 114.597 211.341 114.797 211.078 115.064C210.823 115.316 210.629 115.603 210.496 115.927C210.363 116.25 210.286 116.597 210.266 116.968C210.259 117.335 210.293 117.696 210.366 118.051L215.273 116.456ZM221.946 109.641C222.098 109.591 222.273 109.548 222.472 109.512C222.679 109.459 222.883 109.42 223.086 109.396C223.284 109.36 223.466 109.336 223.63 109.325C223.803 109.296 223.932 109.283 224.017 109.283L224.213 110.923C224.057 110.917 223.804 110.937 223.453 110.98C223.112 111.007 222.687 111.103 222.18 111.268C221.85 111.375 221.533 111.52 221.228 111.703C220.931 111.87 220.737 111.982 220.643 112.041L223.344 120.353L221.575 120.928L218.498 111.455C218.867 111.167 219.341 110.858 219.921 110.53C220.497 110.188 221.172 109.892 221.946 109.641Z"
        fill="white" />
</svg>
    